<svg xmlns="http://www.w3.org/2000/svg" xmlns:xlink="http://www.w3.org/1999/xlink" viewBox="0 0 286.2 50.05"><defs><style>.cls-1{fill:#ff9c74;}.cls-2{fill:#ffc956;}.cls-3{fill:#ffa66c;}.cls-4{fill:#ffb163;}.cls-5{fill:#ffbc5c;}.cls-6{fill:url(#linear-gradient);}.cls-7{fill:url(#linear-gradient-2);}.cls-8{fill:url(#linear-gradient-3);}.cls-9{fill:url(#linear-gradient-4);}.cls-10{fill:url(#linear-gradient-5);}.cls-11{fill:url(#linear-gradient-6);}.cls-12{fill:url(#linear-gradient-7);}</style><linearGradient id="linear-gradient" x1="113.04" y1="49.61" x2="113.04" gradientUnits="userSpaceOnUse"><stop offset="0" stop-color="#ffc956"/><stop offset="0.5" stop-color="#ffb163"/><stop offset="1" stop-color="#ff9c74"/></linearGradient><linearGradient id="linear-gradient-2" x1="151.93" y1="49.87" x2="151.93" y2="15.94" xlink:href="#linear-gradient"/><linearGradient id="linear-gradient-3" x1="172.93" y1="50" x2="172.93" y2="6.08" xlink:href="#linear-gradient"/><linearGradient id="linear-gradient-4" x1="200.58" y1="49.61" x2="200.58" y2="0" xlink:href="#linear-gradient"/><linearGradient id="linear-gradient-5" x1="236.93" y1="49.87" x2="236.93" y2="15.94" xlink:href="#linear-gradient"/><linearGradient id="linear-gradient-6" x1="257.92" y1="50" x2="257.92" y2="3.31" xlink:href="#linear-gradient"/><linearGradient id="linear-gradient-7" x1="275.72" y1="50" x2="275.72" y2="3.31" xlink:href="#linear-gradient"/></defs><title>Asset 1</title><g id="Layer_2" data-name="Layer 2"><g id="Layer_1-2" data-name="Layer 1"><g id="Layer_2-2" data-name="Layer 2"><g id="Checkbox"><path id="box" class="cls-1" d="M61.94.13C61.12.79,60.39,1.35,59.69,2s-1.35,1.23-2,1.87a1,1,0,0,1-.76.32H47.18v14.2H61.39V13.45a1.28,1.28,0,0,1,.22-.71c1.14-1.5,2.3-3,3.46-4.48.1-.13.18-.26.26-.39l.13.09a1.47,1.47,0,0,1,0,.17q0,5.74-.07,11.48a9.28,9.28,0,0,1-.1,1.18,1.6,1.6,0,0,1-1.77,1.62c-1.79.06-3.58.11-5.37.11l-11.48,0a17.37,17.37,0,0,1-2.24-.17,1.28,1.28,0,0,1-1.23-1.24A15.4,15.4,0,0,1,43,19q0-7.49,0-15a20.16,20.16,0,0,1,.16-2.29A1.41,1.41,0,0,1,44.75.24C46.38.15,48,.09,49.63.08c3.89,0,7.79,0,11.68,0A3.54,3.54,0,0,1,61.94.13Z"/><path id="tick" class="cls-2" d="M54.74,11.2c1-1.29,1.87-2.59,2.88-3.77a23.25,23.25,0,0,1,8-6.12A7.09,7.09,0,0,1,66.67.92a.7.7,0,0,1,.88.35.71.71,0,0,1-.21.88A18.42,18.42,0,0,1,66,3.43a37.12,37.12,0,0,0-8,9.48c-.39.65-.77,1.31-1.16,2a4.94,4.94,0,0,1-.43.6,1.24,1.24,0,0,1-2,.17,28.49,28.49,0,0,1-2-2.26c-.67-.83-1.32-1.69-1.92-2.59a1.14,1.14,0,0,1,.19-1.73.92.92,0,0,1,1.42-.14c.74.56,1.43,1.21,2.14,1.82C54.43,10.9,54.59,11.07,54.74,11.2Z"/></g><g id="wholeFlame"><path id="flame0" class="cls-1" d="M41.46,29.31A20.73,20.73,0,1,1,6.07,14.66L20.73,0,35.39,14.66A20.66,20.66,0,0,1,41.46,29.31Z"/><path id="flame1" class="cls-3" d="M37,33.66A16.32,16.32,0,1,1,9.19,22.13L20.73,10.59,32.26,22.13A16.25,16.25,0,0,1,37,33.66Z"/><path id="flame2" class="cls-4" d="M33.55,37.22a12.82,12.82,0,1,1-21.88-9.06l9.06-9.07,9.06,9.07A12.77,12.77,0,0,1,33.55,37.22Z"/><path id="flame3" class="cls-5" d="M30.52,40.21a9.79,9.79,0,1,1-16.71-6.92l6.92-6.92,6.92,6.92A9.76,9.76,0,0,1,30.52,40.21Z"/><path id="flame4" class="cls-2" d="M26.81,44a6.08,6.08,0,1,1-10.37-4.29l4.3-4.3,4.3,4.3A6.05,6.05,0,0,1,26.81,44Z"/></g></g><path class="cls-6" d="M105.9,4.63a14.67,14.67,0,0,0-6.85,5.56,16,16,0,0,0-2.41,8.93,8.66,8.66,0,0,0,.46,3.41,5.82,5.82,0,0,1,.46,1.09,8.07,8.07,0,0,1-5.32-1.49q-1.75-1.49-1.75-4.93A12.51,12.51,0,0,1,94,9a27.52,27.52,0,0,1,19.74-9q.93,0,2.65.13l-4.23,19.71h9.72L126.07.13h9.52L125.08,49.61h-9.52l5.29-24.87h-9.72l-5.29,24.87H96.31Z"/><path class="cls-7" d="M135.73,47.36q-2.85-2.51-2.84-7.94a31.56,31.56,0,0,1,1.85-10,23.6,23.6,0,0,1,6-9.49,14.18,14.18,0,0,1,10.32-4q8.47,0,8.47,10.58v.07a2.66,2.66,0,0,0,.73.07,13.6,13.6,0,0,0,5-1.16,25.14,25.14,0,0,0,5.16-2.81l.6,1.79a15.81,15.81,0,0,1-5,3.47,25.87,25.87,0,0,1-6.71,2,29.94,29.94,0,0,1-2.71,10.52,17.85,17.85,0,0,1-5.62,6.94,12.63,12.63,0,0,1-7.47,2.45A11.26,11.26,0,0,1,135.73,47.36Zm13.56-5.26a16.3,16.3,0,0,0,2.78-5,32.12,32.12,0,0,0,1.72-7q-1.79-.4-1.79-2.78a3.46,3.46,0,0,1,2-3.57,6.82,6.82,0,0,0-.66-3,2,2,0,0,0-1.85-.83q-2.18,0-4.23,3.17A28,28,0,0,0,144,30.75a29.07,29.07,0,0,0-1.26,7.81q0,3.17.73,4.27a3,3,0,0,0,2.65,1.09A4.38,4.38,0,0,0,149.29,42.1Z"/><path class="cls-8" d="M164.4,48q-2-2-2-6a22.92,22.92,0,0,1,.53-4.3l4-18.59h-2.18l.53-2.65h2.18l2-9.13,9.79-1.32L177,16.54h4l-.53,2.65h-4L172.24,39a8.18,8.18,0,0,0-.26,2.12A2.43,2.43,0,0,0,172.6,43a3.1,3.1,0,0,0,2.08.56A5,5,0,0,0,178.26,42a9.27,9.27,0,0,0,2.38-4.2h2.78q-2.45,7.14-6.28,9.69A13.7,13.7,0,0,1,169.53,50,6.86,6.86,0,0,1,164.4,48Z"/><path class="cls-9" d="M196,7.54l9.79-1.32-4.7,22.09a9.61,9.61,0,0,0,5.85-2.78,17.52,17.52,0,0,0,4.2-6.22A19.06,19.06,0,0,0,212.65,12a9.92,9.92,0,0,0-2.05-6.48Q208.55,3,204.45,3q-8.07,0-12.6,4.23t-4.53,11.84a8.67,8.67,0,0,0,.46,3.41,5.82,5.82,0,0,1,.46,1.09,8.07,8.07,0,0,1-5.32-1.49q-1.75-1.49-1.75-4.93A12.51,12.51,0,0,1,184.64,9a27.52,27.52,0,0,1,19.74-9,19.12,19.12,0,0,1,8.73,1.79,12.1,12.1,0,0,1,5.19,4.73A12.87,12.87,0,0,1,220,13a16.72,16.72,0,0,1-2.35,8.4,18.48,18.48,0,0,1-6.71,6.71,19.19,19.19,0,0,1-10.05,2.61h-.33l-4,18.85H187Z"/><path class="cls-10" d="M220.72,47.36q-2.85-2.51-2.84-7.94a31.56,31.56,0,0,1,1.85-10,23.61,23.61,0,0,1,6-9.49,14.18,14.18,0,0,1,10.32-4q8.47,0,8.47,10.58v.07a2.65,2.65,0,0,0,.73.07,13.6,13.6,0,0,0,5-1.16,25.11,25.11,0,0,0,5.16-2.81l.6,1.79a15.82,15.82,0,0,1-5,3.47,25.88,25.88,0,0,1-6.71,2,29.94,29.94,0,0,1-2.71,10.52,17.84,17.84,0,0,1-5.62,6.94,12.63,12.63,0,0,1-7.47,2.45A11.27,11.27,0,0,1,220.72,47.36Zm13.56-5.26a16.3,16.3,0,0,0,2.78-5,32,32,0,0,0,1.72-7q-1.79-.4-1.79-2.78A3.47,3.47,0,0,1,239,23.81a6.81,6.81,0,0,0-.66-3,2,2,0,0,0-1.85-.83q-2.18,0-4.23,3.17A28,28,0,0,0,229,30.75a29.07,29.07,0,0,0-1.26,7.81q0,3.17.73,4.27a3,3,0,0,0,2.65,1.09A4.38,4.38,0,0,0,234.28,42.1Z"/><path class="cls-11" d="M249.39,48q-2-2-2-6a23,23,0,0,1,.53-4.3L255,4.63l9.79-1.32L257.23,39a8.13,8.13,0,0,0-.26,2.12,2.42,2.42,0,0,0,.63,1.88,3.1,3.1,0,0,0,2.08.56A5,5,0,0,0,263.25,42a9.28,9.28,0,0,0,2.38-4.2h2.78q-2.45,7.14-6.28,9.69A13.7,13.7,0,0,1,254.52,50,6.87,6.87,0,0,1,249.39,48Z"/><path class="cls-12" d="M267.18,48q-2-2-2-6a23,23,0,0,1,.53-4.3l7.08-33.14,9.79-1.32L275,39a8.13,8.13,0,0,0-.26,2.12,2.42,2.42,0,0,0,.63,1.88,3.1,3.1,0,0,0,2.08.56A5,5,0,0,0,281,42a9.28,9.28,0,0,0,2.38-4.2h2.78q-2.45,7.14-6.28,9.69A13.7,13.7,0,0,1,272.31,50,6.87,6.87,0,0,1,267.18,48Z"/></g></g></svg>